<?xml version="1.0" standalone="no"?><!DOCTYPE svg PUBLIC "-//W3C//DTD SVG 1.1//EN" "http://www.w3.org/Graphics/SVG/1.1/DTD/svg11.dtd"><svg t="1635387074278" class="icon" viewBox="0 0 1024 1024" version="1.1" xmlns="http://www.w3.org/2000/svg" p-id="5436" xmlns:xlink="http://www.w3.org/1999/xlink" width="200" height="200"><defs><style type="text/css"></style></defs><path d="M520.5 322.4h45.9c122.7 0 208.6-1.1 331.9-1.1 86.6 0 118.7 43 118.7 89.4 0.6 43.6-28.1 84.3-100.3 86-38.4 1.1-75.7 0.6-122.7-1.1-22.4-0.6-31.5 6.3-28.7 28.7 4 35-1.7 66.5-30.4 90.6-12.6 10.9-6.3 26.4-5.2 40.1 3.4 38.4-5.2 73.4-36.1 98.6-16 13.8-15.5 29.2-13.8 46.4 3.4 36.7-9.2 76.2-42.4 96.3-32.7 20.1-74.5 16-111.2 14.9-71.7-2.3-144.4 1.1-216.1-8.6-73.9-10.3-144.4-36.7-214.4-63.6-54.4-21.4-84.7-42-82.4-104.5 2.9-102.6 1.7-205.8 0.6-308.4-0.6-29.8 14.3-43.6 39.6-51 99.2-28.1 188-77.4 266-144.4 36.7-31.5 75.1-60.2 109.5-95.2 33.8-34.4 95.7-28.7 123.8-2.3 34.4 32.1 39 83.1 10.3 125-12.8 19.5-25.4 38.4-42.6 64.2z m153.7 52.7H416.8c-13.2 0-30.4 3.4-29.8-19.5 0.6-15.5-1.1-26.9 20.6-34.4 42.4-13.8 72.8-46.4 100.9-80.8 17.2-21.2 25.8-38.4 5.2-61.3-23.5-25.8-40.7-4-55.6 8.6-103.7 90-204.6 184-341.1 226.4-12.6 4-41.8 5.2-40.1 41.8 5.2 95.7 2.9 191.4 0.6 287.2-0.6 21.8 12 33.8 24.1 38.4 69.4 26.9 141 57.3 215.5 66.5 57.3 6.9 115.2 8 173.1 8 39.6 0 119.8 17.2 133.6-35.5 12-45.3-32.1-47.6-61.9-49.9-18.9-1.1-39 6.3-38.4-28.1 0.6-31.5 18.9-25.2 36.1-25.2 20.1 0 40.1-1.7 60.2 0.6 32.1 3.4 47-6.9 46.4-41.3-1.1-56.7-63.6-42.4-103.7-42.4-17.8 0-21.2-12-21.8-28.1-0.6-26.9 13.2-26.4 31.5-25.8 31.5 0.6 63.1 1.7 94 0.6 33.2-0.6 45.3-27.5 45.9-40.1 0.6-13.8 2.9-40.7-22.4-42.4-35.5-2.3-69.9-1.1-92.9-2.3-17.2-1.1-36.7 5.2-37.3-26.4 0-29.8 17.2-26.9 36.1-26.9 108.3 0 217.2-1.1 325.6 0.6 26.9 0.6 44.1-6.3 44.1-35 0-25.8-19.5-33.8-43-33.8-81.9-1.2-165 1.1-248.1 0.5z" fill="#D4237A" p-id="5437"></path></svg>